<svg xmlns="http://www.w3.org/2000/svg" viewBox="0 0 397.23 291.4">
    <path
        d="m171.95,107.56c-49.48-3.37-92.7-29.55-119.22-68.11-5.46-7.93-8.31-17.36-8.31-26.99h0c0-5.63,4.57-10.2,10.2-10.2h70.28c18.76,0,35.79,10.94,43.63,27.99,9.03,19.65,14.15,41.48,14.34,64.49,0,.45,0,.9,0,1.36s0,.91,0,1.36h0c-.05,5.88-5.04,10.49-10.9,10.09Z" />
    <path
        d="m225.28,107.56c-5.86.4-10.86-4.21-10.9-10.09h0c0-.45,0-.9,0-1.36s0-.91,0-1.36c.19-23.01,5.31-44.83,14.34-64.49,7.84-17.05,24.86-27.99,43.63-27.99h70.28c5.63,0,10.2,4.57,10.2,10.2h0c0,9.62-2.85,19.05-8.31,26.98-26.53,38.56-69.74,64.74-119.23,68.11Z" />
    <path
        d="m384.44,289.13h-11.89c-78.97,0-146.59-57.69-157.79-135.87-.1-.69-.19-1.38-.29-2.07-.85-6.37,3.89-12.1,10.3-12.46,61.13-3.5,115.19-33.35,151.02-78.36,6.5-8.17,19.64-3.64,19.64,6.8v210.97c0,6.07-4.92,11-11,11Z" />
    <path
        d="m384.44,289.13h-11.89c-78.97,0-146.59-57.69-157.79-135.87-.1-.69-.19-1.38-.29-2.07-.85-6.37,3.89-12.1,10.3-12.46,61.13-3.5,115.19-33.35,151.02-78.36,6.5-8.17,19.64-3.64,19.64,6.8v210.97c0,6.07-4.92,11-11,11Z" />
    <path
        d="m12.79,289.13h11.89c78.97,0,146.59-57.69,157.79-135.87.1-.69.19-1.38.29-2.07.85-6.37-3.89-12.1-10.3-12.46-61.13-3.5-115.19-33.35-151.02-78.36-6.5-8.17-19.64-3.64-19.64,6.8v210.97c0,6.07,4.92,11,11,11Z" />
</svg>